<?xml version="1.0"?>
<svg xmlns="http://www.w3.org/2000/svg" xmlns:xlink="http://www.w3.org/1999/xlink" xmlns:svgjs="http://svgjs.com/svgjs" version="1.1" width="512" height="512" x="0" y="0" viewBox="0 0 512 512" style="enable-background:new 0 0 512 512" xml:space="preserve" class=""><g>
<circle xmlns="http://www.w3.org/2000/svg" style="" cx="256" cy="256" r="256" fill="#00ccb2" data-original="#ffd15d" class=""/>
<path xmlns="http://www.w3.org/2000/svg" style="" d="M511.691,268.553L405.344,162.206L256,311.529l39.795,39.795L256,409.529l87.205,87.206  c34.237-12.376,66.369-32.27,93.813-59.714C483.812,390.225,508.7,329.825,511.691,268.553z" fill="#00ab94" data-original="#f9b54c" class=""/>
<g xmlns="http://www.w3.org/2000/svg">
	<polygon style="" points="256,409.529 106.656,260.206 134.69,232.167 256,353.459 377.31,232.169 405.344,260.206     " fill="#fdbf00" data-original="#324a5e" class=""/>
	<polygon style="" points="256,311.529 106.656,162.206 134.69,134.166 256,255.46 377.31,134.168 405.344,162.206     " fill="#fdbf00" data-original="#324a5e" class=""/>
</g>
<g xmlns="http://www.w3.org/2000/svg">
	<polygon style="" points="405.344,260.206 377.31,232.169 256,353.459 255.426,352.885 255.426,408.955 256,409.529     " fill="#ff8700" data-original="#2b3b4e" class=""/>
	<polygon style="" points="405.344,162.206 377.31,134.168 256,255.46 255.426,254.886 255.426,310.955 256,311.529     " fill="#ff8700" data-original="#2b3b4e" class=""/>
</g>
<g xmlns="http://www.w3.org/2000/svg">
</g>
<g xmlns="http://www.w3.org/2000/svg">
</g>
<g xmlns="http://www.w3.org/2000/svg">
</g>
<g xmlns="http://www.w3.org/2000/svg">
</g>
<g xmlns="http://www.w3.org/2000/svg">
</g>
<g xmlns="http://www.w3.org/2000/svg">
</g>
<g xmlns="http://www.w3.org/2000/svg">
</g>
<g xmlns="http://www.w3.org/2000/svg">
</g>
<g xmlns="http://www.w3.org/2000/svg">
</g>
<g xmlns="http://www.w3.org/2000/svg">
</g>
<g xmlns="http://www.w3.org/2000/svg">
</g>
<g xmlns="http://www.w3.org/2000/svg">
</g>
<g xmlns="http://www.w3.org/2000/svg">
</g>
<g xmlns="http://www.w3.org/2000/svg">
</g>
<g xmlns="http://www.w3.org/2000/svg">
</g>
</g></svg>
