<svg width="954.9999999999999" height="680.5" xmlns="http://www.w3.org/2000/svg" xmlns:xlink="http://www.w3.org/1999/xlink">
 <defs>
  <linearGradient y2="0.50002" x2="1" y1="0.50002" x1="-0.00016" id="24f03e8c-5c7e-4fae-8483-b5d808403054">
   <stop stop-opacity="0.25" stop-color="gray" offset="0"/>
   <stop stop-opacity="0.12" stop-color="gray" offset="0.54"/>
   <stop stop-opacity="0.1" stop-color="gray" offset="1"/>
  </linearGradient>
  <linearGradient xlink:href="#24f03e8c-5c7e-4fae-8483-b5d808403054" y2="466.38" x2="520.07" y1="466.38" x1="518.88" id="00c9c3cb-352a-4ad1-9ec3-c89fe8d1d33c"/>
  <linearGradient xlink:href="#24f03e8c-5c7e-4fae-8483-b5d808403054" y2="467.31" x2="521.01" y1="467.31" x1="519.81" id="120917fe-dde0-4ef5-b791-4b8cdc7eaea0"/>
  <linearGradient xlink:href="#24f03e8c-5c7e-4fae-8483-b5d808403054" y2="466.38" x2="521.01" y1="466.38" x1="519.81" id="d6588c0b-28b1-4044-81f0-862b52dadcf0"/>
 </defs>
 <title>walk in the city</title>
 <g>
  <title>background</title>
  <rect fill="none" id="canvas_background" height="602" width="802" y="-1" x="-1"/>
 </g>
 <g>
  <title>Layer 1</title>
  <path id="svg_1" stroke-width="2" stroke-miterlimit="10" stroke="#535461" fill="none" d="m-133.23,637.59"/>
  <path id="svg_2" opacity="0.1" fill="#000000" d="m857.57,577.95c-7.12,3.67 -14.58,6.84 -21.94,10c-27.19,11.48 -54.79,23.06 -84,27c-54.86,7.3 -111.47,-12.7 -165.37,-0.22c-45.15,10.42 -82.49,42.35 -126.6,56.57c-20.51,6.61 -41.85,9.2 -63.38,9.2l-2.78,0q-4,-0.05 -7.94,-0.2c-21.83,-0.82 -43.75,-4.05 -65.15,-8.18c-67.57,-13 -136.34,-36.83 -188,-80.7c150.42,-27.48 460.27,-69.66 725.16,-13.47z"/>
  <polygon id="svg_3" opacity="0.3" fill="#262626" points="910 249 910 185 872 185 872 249 827 249 827 150 794 150 794 76 767 76 767 0 711 0 711 76 684 76 684 150 652 150 652 61 634 61 634 16 623 16 623 61 559 61 559 345 510 345 510 315 480 315 480 345 431 345 431 249 343 249 343 185 305 185 305 249 303 249 303 372 263 372 263 300 215 300 215 372 175 372 175 150 144 150 144 76 30 76 30 150 0 150 0 541 175 541 303 541 431 541 559 541 652 541 827 541 955 541 955 249 910 249"/>
  <rect id="svg_4" opacity="0.4" fill="#fff" height="24" width="42" y="173" x="19"/>
  <rect id="svg_5" opacity="0.4" fill="#fff" transform="rotate(-180 390.50000000000006,479.75) " height="24" width="42" y="762.5" x="626"/>
  <rect id="svg_6" opacity="0.4" fill="#fff" height="24" width="42" y="220" x="19"/>
  <rect id="svg_7" opacity="0.4" fill="#fff" transform="rotate(-180 390.50000000000006,573.75) " height="24" width="42" y="903.5" x="626"/>
  <rect id="svg_8" opacity="0.4" fill="#fff" height="24" width="42" y="267" x="19"/>
  <rect id="svg_9" opacity="0.4" fill="#fff" transform="rotate(-180 390.50000000000006,667.75) " height="24" width="42" y="1044.5" x="626"/>
  <rect id="svg_10" opacity="0.4" fill="#fff" height="24" width="42" y="314" x="19"/>
  <rect id="svg_11" opacity="0.4" fill="#fff" transform="rotate(-180 390.5,761.75) " height="24" width="42" y="1185.5" x="626"/>
  <rect id="svg_12" opacity="0.4" fill="#fff" height="24" width="42" y="361" x="19"/>
  <rect id="svg_13" opacity="0.4" fill="#fff" transform="rotate(-180 390.5,855.75) " height="24" width="42" y="1326.5" x="626"/>
  <rect id="svg_14" opacity="0.4" fill="#fff" height="24" width="42" y="408" x="19"/>
  <rect id="svg_15" opacity="0.4" fill="#fff" transform="rotate(-180 390.5,949.75) " height="24" width="42" y="1467.5" x="626"/>
  <rect id="svg_16" opacity="0.4" fill="#fff" height="24" width="42" y="455" x="19"/>
  <rect id="svg_17" opacity="0.4" fill="#fff" transform="rotate(-180 390.5,1043.75) " height="24" width="42" y="1608.5" x="626"/>
  <rect id="svg_18" opacity="0.4" fill="#fff" height="12" width="98" y="396" x="190"/>
  <rect id="svg_19" opacity="0.4" fill="#fff" height="12" width="98" y="414" x="190"/>
  <rect id="svg_20" opacity="0.4" fill="#fff" height="12" width="98" y="432" x="190"/>
  <rect id="svg_21" opacity="0.4" fill="#fff" height="12" width="98" y="402" x="446"/>
  <rect id="svg_22" opacity="0.4" fill="#fff" height="12" width="98" y="420" x="446"/>
  <rect id="svg_23" opacity="0.4" fill="#fff" height="12" width="98" y="438" x="446"/>
  <rect id="svg_24" opacity="0.4" fill="#fff" height="12" width="98" y="450" x="190"/>
  <rect id="svg_25" opacity="0.4" fill="#fff" height="12" width="98" y="468" x="190"/>
  <rect id="svg_26" opacity="0.4" fill="#fff" height="12" width="98" y="486" x="190"/>
  <rect id="svg_27" opacity="0.4" fill="#fff" height="35" width="27" y="272" x="324"/>
  <rect id="svg_28" opacity="0.4" fill="#fff" transform="rotate(-180 915.5,688.75) " height="35" width="27" y="1070.5" x="1421"/>
  <rect id="svg_29" opacity="0.4" fill="#fff" height="35" width="27" y="328" x="324"/>
  <rect id="svg_30" opacity="0.4" fill="#fff" transform="rotate(-180 915.5,800.75) " height="35" width="27" y="1238.5" x="1421"/>
  <rect id="svg_31" opacity="0.4" fill="#fff" height="35" width="27" y="384" x="324"/>
  <rect id="svg_32" opacity="0.4" fill="#fff" transform="rotate(-180 915.5,912.75) " height="35" width="27" y="1406.5" x="1421"/>
  <rect id="svg_33" opacity="0.4" fill="#fff" height="35" width="27" y="440" x="324"/>
  <rect id="svg_34" opacity="0.4" fill="#fff" transform="rotate(-180 915.5000000000001,1024.75) " height="35" width="27" y="1574.5" x="1421"/>
  <rect id="svg_35" opacity="0.4" fill="#fff" height="46" width="36" y="84" x="559"/>
  <rect id="svg_36" opacity="0.4" fill="#fff" height="46" width="36" y="150" x="559"/>
  <rect id="svg_37" opacity="0.4" fill="#fff" height="46" width="36" y="216" x="559"/>
  <rect id="svg_38" opacity="0.4" fill="#fff" height="46" width="36" y="282" x="559"/>
  <rect id="svg_39" opacity="0.4" fill="#fff" height="46" width="36" y="348" x="559"/>
  <rect id="svg_40" opacity="0.4" fill="#fff" height="46" width="36" y="414" x="559"/>
  <rect id="svg_41" opacity="0.4" fill="#fff" height="39" width="134" y="178" x="672.5"/>
  <rect id="svg_42" opacity="0.4" fill="#fff" height="39" width="134" y="262" x="673"/>
  <rect id="svg_43" opacity="0.4" fill="#fff" height="39" width="134" y="346" x="673.5"/>
  <rect id="svg_44" opacity="0.4" fill="#fff" height="39" width="134" y="430" x="674"/>
  <rect id="svg_45" opacity="0.4" fill="#fff" height="38" width="18" y="97" x="30"/>
  <rect id="svg_46" opacity="0.4" fill="#fff" height="58" width="45" y="272" x="910"/>
  <rect id="svg_47" opacity="0.4" fill="#fff" height="58" width="45" y="356" x="910"/>
  <rect id="svg_48" opacity="0.4" fill="#fff" height="58" width="45" y="440" x="910"/>
  <path id="svg_49" fill="#73d2f5" d="m49.67,479.55s-78.73,47.5 66.4,120.63c0,0 32,-59.36 -3.38,-107.76a47.66,47.66 0 0 0 -61.83,-13.55l-1.19,0.68z"/>
  <path id="svg_50" stroke-miterlimit="10" stroke="#535461" fill="none" d="m50.58,478.55s67.37,51.55 65.49,121.63"/>
  <path id="svg_51" stroke-width="2" stroke-miterlimit="10" stroke="#535461" fill="none" d="m119.73,602.88s-24.67,-83.76 4.63,-145.41c12.3,-25.87 16.38,-54.92 10.7,-83a222.5,222.5 0 0 0 -11.75,-39"/>
  <path id="svg_52" fill="#73d2f5" d="m141.5,296.56c0,10.27 -18.59,40 -18.59,40s-18.59,-29.77 -18.59,-40a18.59,18.59 0 1 1 37.17,0l0.01,0z"/>
  <path id="svg_53" fill="#73d2f5" d="m172.26,353.42c-5.58,8.62 -37.36,23.5 -37.36,23.5s0.58,-35.09 6.16,-43.71a18.59,18.59 0 0 1 31.2,20.2l0,0.01z"/>
  <path id="svg_54" fill="#73d2f5" d="m170.91,450.59c-9.17,4.62 -44.11,1.43 -44.11,1.43s18.21,-30 27.38,-34.62a18.59,18.59 0 0 1 16.74,33.19l-0.01,0z"/>
  <path id="svg_55" fill="#73d2f5" d="m153.34,523.88c-8.25,6.1 -43.24,8.86 -43.24,8.86s12.88,-32.64 21.13,-38.75a18.59,18.59 0 1 1 22.11,29.89z"/>
  <path id="svg_56" fill="#73d2f5" d="m95.87,378.91c7.36,7.15 41.67,14.56 41.67,14.56s-8.4,-34.07 -15.76,-41.23a18.59,18.59 0 1 0 -25.9,26.66l-0.01,0.01z"/>
  <path id="svg_57" fill="#73d2f5" d="m76.41,464.88c9.17,4.62 44.11,1.43 44.11,1.43s-18.21,-30 -27.38,-34.62a18.59,18.59 0 0 0 -16.74,33.19l0.01,0z"/>
  <path id="svg_58" fill="#73d2f5" d="m68.96,551.04c8.25,6.1 43.24,8.86 43.24,8.86s-12.88,-32.65 -21.14,-38.75a18.59,18.59 0 0 0 -22.11,29.89l0.01,0z"/>
  <path id="svg_59" opacity="0.25" d="m141.5,296.56c0,10.27 -18.59,40 -18.59,40s-18.59,-29.77 -18.59,-40a18.59,18.59 0 1 1 37.17,0l0.01,0z"/>
  <path id="svg_60" opacity="0.25" d="m172.26,353.42c-5.58,8.62 -37.36,23.5 -37.36,23.5s0.58,-35.09 6.16,-43.71a18.59,18.59 0 0 1 31.2,20.2l0,0.01z"/>
  <path id="svg_61" opacity="0.25" d="m170.91,450.59c-9.17,4.62 -44.11,1.43 -44.11,1.43s18.21,-30 27.38,-34.62a18.59,18.59 0 0 1 16.74,33.19l-0.01,0z"/>
  <path id="svg_62" opacity="0.25" d="m153.34,523.88c-8.25,6.1 -43.24,8.86 -43.24,8.86s12.88,-32.64 21.13,-38.75a18.59,18.59 0 1 1 22.11,29.89z"/>
  <path id="svg_63" opacity="0.25" d="m95.87,378.91c7.36,7.15 41.67,14.56 41.67,14.56s-8.4,-34.07 -15.76,-41.23a18.59,18.59 0 1 0 -25.9,26.66l-0.01,0.01z"/>
  <path id="svg_64" opacity="0.25" d="m76.41,464.88c9.17,4.62 44.11,1.43 44.11,1.43s-18.21,-30 -27.38,-34.62a18.59,18.59 0 0 0 -16.74,33.19l0.01,0z"/>
  <path id="svg_65" opacity="0.25" d="m68.96,551.04c8.25,6.1 43.24,8.86 43.24,8.86s-12.88,-32.65 -21.14,-38.75a18.59,18.59 0 0 0 -22.11,29.89l0.01,0z"/>
  <path id="svg_66" stroke-width="2" stroke-miterlimit="10" stroke="#535461" fill="none" d="m889.78,581.25s-24.67,-83.76 4.63,-145.41c12.3,-25.87 16.38,-54.92 10.7,-83a222.5,222.5 0 0 0 -11.75,-39"/>
  <path id="svg_67" fill="#73d2f5" d="m911.59,274.93c0,10.27 -18.59,40 -18.59,40s-18.59,-29.77 -18.59,-40a18.59,18.59 0 1 1 37.17,0l0.01,0z"/>
  <path id="svg_68" fill="#73d2f5" d="m942.31,331.79c-5.58,8.62 -37.36,23.5 -37.36,23.5s0.58,-35.09 6.16,-43.71a18.59,18.59 0 1 1 31.2,20.2l0,0.01z"/>
  <path id="svg_69" fill="#73d2f5" d="m940.97,428.96c-9.17,4.62 -44.11,1.43 -44.11,1.43s18.21,-30 27.38,-34.62a18.59,18.59 0 0 1 16.74,33.19l-0.01,0z"/>
  <path id="svg_70" fill="#73d2f5" d="m923.4,502.25c-8.25,6.1 -43.24,8.86 -43.24,8.86s12.88,-32.64 21.13,-38.75a18.59,18.59 0 0 1 22.11,29.89z"/>
  <path id="svg_71" fill="#73d2f5" d="m865.92,357.25c7.36,7.15 41.67,14.56 41.67,14.56s-8.4,-34.07 -15.76,-41.23a18.59,18.59 0 0 0 -25.91,26.67z"/>
  <path id="svg_72" fill="#73d2f5" d="m846.5,443.25c9.17,4.62 44.11,1.43 44.11,1.43s-18.21,-30 -27.38,-34.62a18.59,18.59 0 0 0 -16.73,33.19z"/>
  <path id="svg_73" fill="#73d2f5" d="m839.01,529.41c8.25,6.1 43.24,8.86 43.24,8.86s-12.88,-32.64 -21.13,-38.75a18.59,18.59 0 0 0 -22.11,29.89z"/>
  <path id="svg_74" stroke-width="2" stroke-miterlimit="10" stroke="#535461" fill="none" d="m778.5,573.1s-13.26,-45 2.49,-78.14a71.09,71.09 0 0 0 5.75,-44.6a119.57,119.57 0 0 0 -6.31,-20.93"/>
  <path id="svg_75" fill="#73d2f5" d="m790.22,408.48c0,5.52 -10,21.51 -10,21.51s-10,-16 -10,-21.51a10,10 0 0 1 20,0z"/>
  <path id="svg_76" fill="#73d2f5" d="m806.73,439.04c-3,4.63 -20.08,12.63 -20.08,12.63s0.31,-18.86 3.31,-23.49a10,10 0 1 1 16.77,10.86z"/>
  <path id="svg_77" fill="#73d2f5" d="m806.01,491.25c-4.93,2.48 -23.71,0.77 -23.71,0.77s9.79,-16.12 14.71,-18.6a10,10 0 0 1 9,17.84l0,-0.01z"/>
  <path id="svg_78" fill="#73d2f5" d="m796.56,530.64c-4.44,3.28 -23.24,4.76 -23.24,4.76s6.92,-17.54 11.36,-20.82a10,10 0 0 1 11.88,16.06z"/>
  <path id="svg_79" fill="#73d2f5" d="m765.68,452.74c4,3.84 22.39,7.83 22.39,7.83s-4.51,-18.31 -8.47,-22.15a10,10 0 1 0 -13.92,14.33l0,-0.01z"/>
  <path id="svg_80" fill="#73d2f5" d="m755.22,498.94c4.93,2.48 23.71,0.77 23.71,0.77s-9.79,-16.12 -14.71,-18.6a10,10 0 0 0 -9,17.84l0,-0.01z"/>
  <path id="svg_81" fill="#73d2f5" d="m751.22,545.25c4.44,3.28 23.24,4.76 23.24,4.76s-6.96,-17.55 -11.36,-20.83a10,10 0 0 0 -11.88,16.07z"/>
  <path id="svg_82" opacity="0.1" fill="#252223" d="m264.68,47.68l-6.88,0a4.82,4.82 0 1 0 0,-9.63l-55.73,0a4.82,4.82 0 0 0 0,9.63l6.88,0a4.82,4.82 0 1 0 0,9.63l-9.63,0a4.82,4.82 0 1 0 0,9.63l55.73,0a4.82,4.82 0 1 0 0,-9.63l9.63,0a4.82,4.82 0 1 0 0,-9.63z"/>
  <path id="svg_83" opacity="0.1" fill="#252223" d="m510.68,168.68l-6.88,0a4.82,4.82 0 1 0 0,-9.63l-55.73,0a4.82,4.82 0 0 0 0,9.63l6.88,0a4.82,4.82 0 1 0 0,9.63l-9.63,0a4.82,4.82 0 1 0 0,9.63l55.73,0a4.82,4.82 0 1 0 0,-9.63l9.63,0a4.82,4.82 0 1 0 0,-9.63z"/>
  <path id="svg_84" opacity="0.1" fill="#252223" d="m929.68,10.68l-6.88,0a4.82,4.82 0 1 0 0,-9.63l-55.73,0a4.82,4.82 0 0 0 0,9.63l6.88,0a4.82,4.82 0 1 0 0,9.63l-9.63,0a4.82,4.82 0 1 0 0,9.63l55.73,0a4.82,4.82 0 0 0 0,-9.63l9.63,0a4.82,4.82 0 1 0 0,-9.63z"/>
  <path id="svg_85" fill="url(#24f03e8c-5c7e-4fae-8483-b5d808403054)" d="m548.2,566.68l0.22,0s-35.09,-96.43 -44.92,-109.5c0,0 -10.29,-6.08 -9.82,-16.37l-12.63,-61.28s0.19,-0.19 0.51,-0.54l0.27,-0.3l0.31,-0.36a29.35,29.35 0 0 0 4.19,-6.59l0.2,-0.46a25.27,25.27 0 0 0 1.18,-3.31a3.49,3.49 0 0 0 2.69,-0.14s0,-0.33 0,-0.92l0,0s-0.12,-3.63 -0.13,-9.31c0,-1.58 0,-3.3 0,-5.13c0.39,-1.41 0.72,-2.89 1,-4.47l-0.51,-0.24l0,-0.23l-0.43,-0.2c0.35,-13.45 1.49,-30.64 4.78,-42.35q0.17,-0.62 0.36,-1.23c3.89,-12.79 4,-28.4 5,-41.6a42.42,42.42 0 0 1 2,5.11a7.81,7.81 0 0 1 1.69,-1.43l3.92,31.37l0,37s-6.55,47.72 14,38.83s5.61,-41.64 5.61,-41.64s0,-18.24 2.81,-27.6c1.85,-6.16 0.66,-26.08 -0.38,-39c2,0.35 3.18,0.63 3.18,0.63a21.88,21.88 0 0 0 0.61,-5.73c0.43,-21.57 -26.17,-56.32 -37,-69.58a31.09,31.09 0 0 0 -12.49,-11l-20.81,-10.08s-9.83,-2.4 -13.66,-10c0,-0.13 -0.07,-0.26 -0.1,-0.39q0.65,-0.29 1.28,-0.63a23.06,23.06 0 0 0 8.14,-6.54c4.43,-5.63 6.55,-12.68 8.57,-19.55c2.38,-8.08 4.78,-16.33 4.46,-24.75s-3.86,-17.17 -11,-21.64c-6.1,-3.82 -14.61,-4.54 -18.4,-10.66c-1,-1.65 -1.64,-3.61 -3,-4.94a1.14,1.14 0 0 0 -0.92,-1.18l-10.48,-2.06a1.14,1.14 0 0 0 -1.34,0.9l0,0.15a63.38,63.38 0 0 0 -26.93,6.84a61.28,61.28 0 0 0 -8.52,5c-3.85,2.72 -7.64,6.33 -8.19,11c-0.27,2.33 0.29,4.72 -0.18,7c-1.27,6.11 -9.46,10.09 -8.26,16.22c0.81,4.16 5.52,5.95 9.93,6a33.22,33.22 0 0 0 25.25,41.48a95.94,95.94 0 0 1 8.4,14.3c-5.39,5.12 -16.68,17 -9.76,21l-14.4,35.58l1.4,36.67l-6.07,5.42l1.33,1.66c-6.8,7.92 -22.54,25.23 -34.05,29.84a35.58,35.58 0 0 0 -4.8,2.36a19.37,19.37 0 0 1 -6.89,2.7a19,19 0 0 0 -3.16,0.62l-2.75,-5.7a4.1,4.1 0 0 0 -5.48,-1.91l-1.69,0.81l0,0l-4,1.93l-1.67,0.81l0,0l-1.26,0.61a4.1,4.1 0 0 0 -1.91,5.47l3.33,6.9c-4.73,4.17 -7.05,9.15 -0.6,13.79a14,14 0 0 0 8.55,2.7l2,4.19a4.1,4.1 0 0 0 5.48,1.91l2.93,-1.42l5.68,-2.74a4.1,4.1 0 0 0 1.91,-5.48l-1.66,-3.45a67.68,67.68 0 0 0 10.16,-9.75s8.54,-5.35 13.57,-6.55c3.33,-0.79 15,-8.46 22.24,-13.32l2.06,54a11.46,11.46 0 0 1 -1.58,1.94l1.61,-1.14l0,0.4a8.91,8.91 0 0 1 -0.69,0.74l0.7,-0.5l0,0.65a9,9 0 0 1 -0.73,0.78l0.74,-0.52l0.3,5.67l3.52,-5.84l0.22,5.84l0.82,-1.36c-9.88,16.79 -22.75,41.51 -29.63,66.38c0,0 -10.76,18.71 -9.36,37.89l-19.65,95l0.38,0.14c-6.4,4.62 -19.89,13.09 -33.12,13.43c0,0 -31.81,-0.94 -22.92,6.08s87.95,17.31 87.95,17.31l3,-23.65l0.7,0.26s0,-0.13 0,-0.37l1,0.37s-1.91,-11.76 5.09,-18.31s23.39,-73 22,-83.27c0,0 12.56,-31.39 28.28,-56.42l18.48,47.52l20.58,35.55s27.38,60.88 26.5,74.44c-5.75,7 -16,18 -23.69,17.71c0,0 -31.34,6.08 -9.82,11.7s84.67,-15.4 84.67,-15.4l-6.3,-20.57zm-137,-217.66l0.19,-0.11c-1,1.51 -2,3.18 -3.14,5l2.95,-4.89z"/>
  <path id="svg_86" fill="url(#00c9c3cb-352a-4ad1-9ec3-c89fe8d1d33c)" d="m397.57,356.19c-0.77,0.56 -1.19,0.87 -1.19,0.87a5.07,5.07 0 0 0 1.19,-0.87z"/>
  <path id="svg_87" fill="url(#120917fe-dde0-4ef5-b791-4b8cdc7eaea0)" d="m398.5,357.13c-0.77,0.56 -1.19,0.87 -1.19,0.87a5.07,5.07 0 0 0 1.19,-0.87z"/>
  <path id="svg_88" fill="url(#d6588c0b-28b1-4044-81f0-862b52dadcf0)" d="m398.5,356.19c-0.77,0.56 -1.19,0.87 -1.19,0.87a5.07,5.07 0 0 0 1.19,-0.87z"/>
  <path id="svg_89" fill="#333" d="m505.55,561.75s-16.42,23.26 -27.37,22.8c0,0 -30.56,5.93 -9.58,11.4s82.55,-15.05 82.55,-15.05l-7.32,-23.85l-38.28,4.7z"/>
  <path id="svg_90" fill="#ff8700" d="m431.12,400.25l23.26,59.75l20.12,34.71s27.59,61.34 25.77,73.2l44,-7.07s-34.21,-94 -43.78,-106.72c0,0 -10,-5.93 -9.58,-16l-12.31,-59.75s12,-11.56 5.28,-26q-0.51,-1.11 -1.18,-2.24c-9.2,-15.51 -43.82,-6.88 -43.82,-6.88l-7.76,57z"/>
  <path id="svg_91" opacity="0.03" d="m520.12,380.25l23.26,59.75l20.12,34.71s27.59,61.34 25.77,73.2l44,-7.07s-34.21,-94 -43.78,-106.72c0,0 -10,-5.93 -9.58,-16l-12.31,-59.75s12,-11.56 5.28,-26q-0.51,-1.11 -1.18,-2.24c-9.2,-15.51 -43.82,-6.88 -43.82,-6.88l-7.76,57z"/>
  <g id="svg_92" opacity="0.1">
   <path id="svg_93" d="m501.45,454.12s-10,-5.93 -9.58,-16l-12.31,-59.75s12,-11.56 5.28,-26q-0.51,-1.11 -1.18,-2.24c-4.42,-7.52 -14.86,-9.36 -24.43,-9.25c9.18,0.08 18.84,2.09 23.06,9.25q0.67,1.13 1.18,2.24c6.69,14.48 -5.28,26 -5.28,26l12.31,59.78c-0.46,10 9.58,16 9.58,16c9.58,12.77 43.78,106.72 43.78,106.72l-42.62,6.85c0,0.07 0,0.15 0,0.22l44,-7.07s-34.21,-93.98 -43.79,-106.75z"/>
  </g>
  <path id="svg_94" fill="#333" d="m351.4,551.72s-18.24,15.51 -36,16c0,0 -31,-0.91 -22.35,5.93s85.74,16.88 85.74,16.88l3.43,-26.69l-30.82,-12.12z"/>
  <g id="svg_95" opacity="0.1">
   <path id="svg_96" d="m418.44,339.64s-30.1,42.42 -42,85.29c0,0 -10.49,18.24 -9.12,36.94l-19.12,92.59l35.12,13.23s-1.82,-11.4 5,-17.79s22.8,-71.15 21.44,-81.18c0,0 21.89,-54.73 43.78,-76.17s32.79,-26.38 36,-44.89c0.02,0 -51.49,-24.9 -71.1,-8.02z"/>
  </g>
  <path id="svg_97" fill="#ff8700" d="m417.5,339.64s-30.1,42.42 -42,85.29c0,0 -10.49,18.24 -9.12,36.94l-19.16,92.59l35.12,13.23s-1.82,-11.4 5,-17.79s22.8,-71.15 21.44,-81.18c0,0 21.89,-54.73 43.78,-76.17s32.79,-26.38 36,-44.89c0.09,0 -51.42,-24.9 -71.06,-8.02z"/>
  <g id="svg_98" opacity="0.1">
   <path id="svg_99" d="m436.97,333.32c22.61,0.27 50.77,13.88 50.77,13.88c-3.22,18.51 -14.11,23.45 -36,44.89s-43.79,76.16 -43.79,76.16c1.37,10 -14.59,74.8 -21.44,81.18c-6,5.56 -5.34,14.91 -5.09,17.25l1.44,0.54s-1.82,-11.4 5,-17.79s22.83,-71.18 21.46,-81.18c0,0 21.89,-54.73 43.78,-76.17s32.79,-26.38 36,-44.89c0.01,0.06 -29.31,-14.15 -52.13,-13.87z"/>
  </g>
  <path id="svg_100" fill="#fda57d" d="m395.18,273.51s-21.77,27.11 -36.46,33a34.69,34.69 0 0 0 -4.68,2.3a18.89,18.89 0 0 1 -6.72,2.63a16.47,16.47 0 0 0 -5.09,1.34c-7.64,3.52 -25.26,13 -13.63,21.4c14.59,10.49 34.21,-13.68 34.21,-13.68s8.33,-5.22 13.23,-6.39s27.35,-16.86 27.35,-16.86l-8.21,-23.74z"/>
  <polygon id="svg_101" fill="#00ccb2" points="396.7800261974335,269.02998781204224 388.1200225353241,276.78999757766724 400.8900420665741,292.74998903274536 396.7800261974335,269.02998781204224 "/>
  <g id="svg_102" opacity="0.1">
   <polygon fill="#00ccb2" id="svg_103" points="392.7800750732422,266.03001284599304 384.1200714111328,273.79002261161804 396.8900909423828,289.75001406669617 392.7800750732422,266.03001284599304 "/>
  </g>
  <path id="svg_104" fill="#00ccb2" d="m421.24,177.25s-20.76,17.79 -12.07,22.8l-14,34.66l4.83,126.79l19.79,-32.84l-13.52,-71.15s-3.86,-42.42 7.24,-52.45l10.62,-21l-2.89,-6.81z"/>
  <path id="svg_107" fill="#fda57d" d="m405.21,158.57s16.88,20.52 16.42,32.38s31.93,-20.52 31.93,-20.52s-12.31,-15.05 -9.12,-31s-39.23,19.14 -39.23,19.14z"/>
  <path id="svg_108" fill="#fda57d" d="m501.45,261.65l4.56,36.49l0,36s-6.39,46.52 13.68,37.86s5.47,-40.59 5.47,-40.59s0,-17.79 2.74,-26.91s-1.4,-49.25 -1.4,-49.25l-25.05,6.4z"/>
  <path id="svg_109" fill="#f2f2f2" d="m438.96,175.45s-12.31,11.86 -18.7,7.75l-8.76,21.77a100,100 0 0 0 -7.12,41.94l3.12,82.24l13.68,-1.82l4.56,-78l6.84,-47.43l6.38,-26.45z"/>
  <g id="svg_110" opacity="0.1">
   <path id="svg_111" d="m449.23,162.91s-16.2,11.17 -20.73,20.75c0,0 -0.46,10.49 -4.1,15.05s-7.3,27.37 -8.21,54.73s-5,63.85 -5,63.85s-6.84,35.57 -14.14,39.22c0,0 33.75,-25.54 50.17,-16.88s35.12,29.65 40.59,26.45c0,0 -1.32,-40 4.67,-61.29q0.17,-0.61 0.35,-1.19c6.39,-21 2.28,-49.71 9.58,-62c0,0 0,-22.29 -4.21,-38.94a30.09,30.09 0 0 0 -16.1,-19.65l-20.28,-9.82s-10.77,-1.62 -12.59,-10.28z"/>
  </g>
  <g id="svg_112" opacity="0.1">
   <path id="svg_113" d="m449.23,162.91s-15.28,12.09 -19.84,21.66c0,0 -0.46,10.49 -4.1,15.05s-7.3,27.37 -8.21,54.73s-5,63.85 -5,63.85s-6.84,35.57 -14.14,39.22c0,0 33.75,-25.54 50.17,-16.88s35.12,29.65 40.59,26.45c0,0 -1.32,-40 4.67,-61.29q0.17,-0.61 0.35,-1.19c6.39,-21 2.28,-49.71 9.58,-62c0,0 0,-22.29 -4.21,-38.94a30.09,30.09 0 0 0 -16.1,-19.65l-20.28,-9.82s-11.66,-2.53 -13.48,-11.19z"/>
  </g>
  <path id="svg_114" fill="#00ab94" d="m449,162.68s-15.05,11.4 -19.61,21c0,0 -0.46,10.49 -4.1,15.05s-7.3,27.37 -8.21,54.73s-5,63.85 -5,63.85s-6.84,35.57 -14.14,39.22c0,0 33.75,-25.54 50.17,-16.88s35.09,29.6 40.57,26.44c0,0 -1.32,-40 4.67,-61.29q0.17,-0.61 0.35,-1.19c6.39,-21 2.28,-49.71 9.58,-62c0,0 0,-22.29 -4.21,-38.94a30.09,30.09 0 0 0 -16.1,-19.65l-20.28,-9.82s-10.27,-2.54 -13.69,-10.52z"/>
  <g id="svg_115" opacity="0.1">
   <path id="svg_116" d="m490.73,189.36s46.29,52.68 39.91,77.76c0,0 -23.72,-5.47 -30.1,1.82c0,0 -5,-16.88 -20.07,-26.45s-28.97,-70.92 10.26,-53.13z"/>
  </g>
  <path id="svg_117" fill="#00ab94" d="m490.73,188.45s46.29,52.68 39.91,77.76c0,0 -23.72,-5.47 -30.1,1.82c0,0 -5,-16.88 -20.07,-26.45s-28.97,-70.92 10.26,-53.13z"/>
  <g id="svg_118" opacity="0.1">
   <path id="svg_119" d="m445.58,149.68c-0.72,-3.68 -0.12,-4 0.68,-8c3.19,-16 -39.22,19.16 -39.22,19.16s2.36,2.87 5.29,7.09a32.52,32.52 0 0 0 6.57,0.67c11.6,0.01 20.95,-9.78 26.68,-18.92z"/>
  </g>
  <circle id="svg_120" fill="#fda57d" r="32.38" cy="133.94" cx="417.07"/>
  <g id="svg_121" opacity="0.1">
   <path id="svg_122" d="m387.98,125.08c-4.77,0.64 -10.85,-1 -11.77,-5.67c-1.16,-6 6.82,-9.85 8.06,-15.81c0.46,-2.24 -0.09,-4.57 0.18,-6.83c0.54,-4.57 4.23,-8.08 8,-10.74a61.41,61.41 0 0 1 40.84,-10.88a9.17,9.17 0 0 1 5.06,1.6c1.57,1.29 2.18,3.39 3.25,5.12c3.7,6 12,6.67 17.94,10.39c7,4.35 10.41,12.89 10.72,21.09s-2,16.25 -4.35,24.13c-2,6.7 -4,13.58 -8.36,19.06s-11.49,9.32 -18.28,7.67c3.11,-2.24 0.85,-7.44 -2.52,-9.27s-7.55,-2.14 -10.43,-4.66s-3.74,-6.64 -4.68,-10.39c-1.18,-4.73 -2.9,-9.53 -6.35,-13c-6.79,-6.75 -19,-2.93 -27.31,-1.81z"/>
  </g>
  <path id="svg_123" fill="#72351c" d="m388.89,124.63c-4.77,0.64 -10.85,-1 -11.77,-5.67c-1.16,-6 6.82,-9.85 8.06,-15.81c0.46,-2.24 -0.09,-4.57 0.18,-6.83c0.54,-4.57 4.23,-8.08 8,-10.74a61.41,61.41 0 0 1 40.84,-10.88a9.17,9.17 0 0 1 5.06,1.6c1.57,1.29 2.18,3.39 3.25,5.12c3.7,6 12,6.67 17.94,10.39c7,4.35 10.41,12.89 10.72,21.09s-2,16.25 -4.35,24.13c-2,6.7 -4,13.58 -8.36,19.06s-11.49,9.32 -18.28,7.67c3.11,-2.24 0.85,-7.44 -2.52,-9.27s-7.55,-2.14 -10.43,-4.66s-3.73,-6.64 -4.73,-10.39c-1.18,-4.73 -2.9,-9.53 -6.35,-13c-6.73,-6.76 -18.95,-2.93 -27.26,-1.81z"/>
  <path id="svg_124" fill="#cbdae3" d="m436.62,91.77l2.93,-15a1.11,1.11 0 0 0 -0.88,-1.31l-10.35,-2a1.11,1.11 0 0 0 -1.31,0.88l-2.93,15l-10,37.08l18.35,3.58l4.19,-38.23z"/>
  <g id="svg_125" opacity="0.1">
   <circle id="svg_126" r="15.96" cy="134.63" cx="421.4"/>
  </g>
  <circle id="svg_127" fill="#cbdae3" r="15.96" cy="135.08" cx="421.4"/>
  <circle id="svg_128" fill="#e9e9e9" r="10.46" cy="135.08" cx="421.4"/>
  <circle id="svg_129" fill="#f48681" r="3.19" cy="135.08" cx="421.4"/>
  <rect id="svg_130" opacity="0.05" transform="rotate(11.050000190734863 -74.05999755859371,-212.08000183105472) " height="0.46" width="12.77" y="-13.13" x="472.62"/>
  <rect id="svg_131" fill="#cbdae3" transform="rotate(-25.739999771118164 -265.08999633789074,133.94000244140625) " ry="7.75" rx="7.75" height="37.86" width="15.51" y="548.84" x="189.06"/>
  <g id="svg_132" opacity="0.1">
   <rect id="svg_133" transform="rotate(-25.739999771118164 -265.08999633789074,133.94000244140625) " ry="7.75" rx="7.75" height="37.86" width="15.51" y="548.84" x="189.06"/>
  </g>
  <rect id="svg_134" fill="#cbdae3" transform="rotate(-25.739999771118164 -264.6400146484376,134.5) " ry="7.98" rx="7.98" height="37.86" width="15.96" y="548.7" x="190.71999"/>
  <rect id="svg_135" fill="#f2f2f2" transform="rotate(-25.739999771118164 -264.010009765625,133.99000549316403) " height="28.73" width="12.06" y="551.11001" x="192.49999"/>
  <ellipse id="svg_136" fill="#f2f2f2" transform="rotate(-25.739999771118164 -270.0599975585938,138.96000671386713) " ry="1.82" rx="1.37" cy="586.16001" cx="200.32"/>
  <g id="svg_105" opacity="0.1">
   <path fill="#00ab94" id="svg_106" d="m416.58997,177.62502s-20.76,17.79 -12.07,22.8l-14,34.66l4.83,126.79l19.79,-32.84l-13.52,-71.15s-3.86,-42.42 7.24,-52.45l10.62,-21l-2.89,-6.81z"/>
  </g>
 </g>
</svg>